# xmcd
#
# Track frame offsets:
#  150
#  14185
#  27462
#  45652
#  60150
#  71392
#  89192
#  101705
#  112350
#  127755
#  140065
#  156335
#
# Disc length: 2295 seconds
#
# Revision: 0
# Processed by: cddbd v1.4PL0 Copyright (c) Steve Scherf et al.
# Submitted via: AltoMP3_Maker 3.0
#
DISCID=b108f50c
DTITLE=Valerie Smith and Liberty Pike - Patchwork Heart
DYEAR=1900
DGENRE=
TTITLE0=Red Clay Halo
TTITLE1=Lonesome Midnight Train
TTITLE2=My Heart Won't Let Your Memory Go Away
TTITLE3=The Man In The Middle
TTITLE4=Second Fiddle To An Old Guitar
TTITLE5=Summers Last Dance
TTITLE6=Bitter Sweet
TTITLE7=Fast Train Through Arkansas
TTITLE8=My Babys Gone
TTITLE9=Greener Pastures
TTITLE10=Rough and Rocky Road
TTITLE11=Patchwork Heart
EXTD=
EXTT0=
EXTT1=
EXTT2=
EXTT3=
EXTT4=
EXTT5=
EXTT6=
EXTT7=
EXTT8=
EXTT9=
EXTT10=
EXTT11=
PLAYORDER=
